<?xml version="1.0" encoding="UTF-8"?>
<svg version="1.1" xmlns="http://www.w3.org/2000/svg" width="1024" height="1024">
<path d="M0 0 C337.92 0 675.84 0 1024 0 C1024 337.92 1024 675.84 1024 1024 C686.08 1024 348.16 1024 0 1024 C0 686.08 0 348.16 0 0 Z " fill="#0C0C0C" transform="translate(0,0)"/>
<path d="M0 0 C6.26325069 -0.03403298 12.526444 -0.06261381 18.78977203 -0.0772438 C20.46645277 -0.08181577 22.14312978 -0.08832023 23.8197937 -0.09711075 C37.42702077 -0.16511635 50.73117185 0.74055767 64.1524086 3.02117538 C65.20122208 3.19809921 66.25003555 3.37502304 67.33063126 3.5573082 C81.57507697 6.03739662 95.46416657 9.35745815 109.1524086 14.02117538 C109.98127579 14.30299667 110.81014297 14.58481796 111.66412735 14.87517929 C137.7797114 23.92864842 162.23298294 37.18731398 184.1524086 54.02117538 C184.94542374 54.62131454 184.94542374 54.62131454 185.75445938 55.23357773 C204.63800732 69.54548917 222.68131981 86.23849507 237.1524086 105.02117538 C238.20254751 106.32222639 239.2548101 107.62156482 240.3086586 108.91961288 C284.05175107 163.28945409 312.06451649 235.68269914 312.3555336 305.81023788 C312.36123367 306.911772 312.36693375 308.01330612 312.37280655 309.14822006 C312.38219965 311.47272424 312.3887677 313.79724139 312.39264297 316.12176132 C312.40224875 319.5884863 312.4332864 323.05459151 312.4649086 326.52117538 C312.56376138 347.15494751 310.44478823 367.28980261 306.4024086 387.52117538 C306.27646317 388.16006699 306.15051773 388.79895859 306.02075577 389.45721054 C293.3209572 453.55589971 263.97032649 510.68779842 219.1524086 558.02117538 C218.44342422 558.77269882 217.73443985 559.52422226 217.0039711 560.29851913 C212.63424784 564.80200943 207.93387423 568.77155642 203.0352211 572.68914413 C201.16849265 574.19922121 199.32756182 575.74199846 197.5195961 577.32195663 C183.55358409 589.47755968 167.56187048 599.49797497 151.1524086 608.02117538 C150.36334122 608.43931503 149.57427383 608.85745468 148.76129532 609.28826523 C99.53420841 635.12235391 45.37061539 640.73270213 -9.36783528 640.42675114 C-14.71681372 640.40128187 -20.06580716 640.39936044 -25.41483688 640.39464951 C-35.48612476 640.38235057 -45.55723332 640.34971151 -55.62844318 640.30925155 C-67.1186862 640.26411961 -78.60893903 640.24244403 -90.09924901 640.22246981 C-113.68212818 640.18096288 -137.26484962 640.11087333 -160.8475914 640.02117538 C-161.02186517 594.23004345 -161.1845646 548.43887385 -161.33854705 502.64766932 C-161.34755829 499.96852012 -161.35658759 497.28937099 -161.36561728 494.61022186 C-161.68079093 400.98511151 -161.9021944 307.36051195 -161.91074991 143.18829757 C-161.91008902 140.51151852 -161.90944644 137.83473947 -161.90880585 135.15796041 C-161.89798432 90.44569318 -161.87826647 45.73343353 -161.8475914 1.02117538 C-141.9723308 0.88910324 -122.09706011 0.75865904 -102.22177696 0.63002396 C-92.98815671 0.57022712 -83.75454023 0.50993518 -74.52093124 0.44842148 C-51.65383997 0.29630948 -28.78672479 0.15299615 -5.91944456 0.03220701 C-3.94629514 0.02170093 -1.97314751 0.0108593 0 0 Z " fill="#0C0C0C" transform="translate(319.8475914001465,191.97882461547852)"/>
<path d="M0 0 C6.26325069 -0.03403298 12.526444 -0.06261381 18.78977203 -0.0772438 C20.46645277 -0.08181577 22.14312978 -0.08832023 23.8197937 -0.09711075 C37.42702077 -0.16511635 50.73117185 0.74055767 64.1524086 3.02117538 C65.20122208 3.19809921 66.25003555 3.37502304 67.33063126 3.5573082 C81.57507697 6.03739662 95.46416657 9.35745815 109.1524086 14.02117538 C109.98127579 14.30299667 110.81014297 14.58481796 111.66412735 14.87517929 C137.7797114 23.92864842 162.23298294 37.18731398 184.1524086 54.02117538 C184.94542374 54.62131454 184.94542374 54.62131454 185.75445938 55.23357773 C204.63800732 69.54548917 222.68131981 86.23849507 237.1524086 105.02117538 C238.20254751 106.32222639 239.2548101 107.62156482 240.3086586 108.91961288 C284.05175107 163.28945409 312.06451649 235.68269914 312.3555336 305.81023788 C312.36123367 306.911772 312.36693375 308.01330612 312.37280655 309.14822006 C312.38219965 311.47272424 312.3887677 313.79724139 312.39264297 316.12176132 C312.40224875 319.5884863 312.4332864 323.05459151 312.4649086 326.52117538 C312.56376138 347.15494751 310.44478823 367.28980261 306.4024086 387.52117538 C306.27646317 388.16006699 306.15051773 388.79895859 306.02075577 389.45721054 C293.3209572 453.55589971 263.97032649 510.68779842 219.1524086 558.02117538 C218.44342422 558.77269882 217.73443985 559.52422226 217.0039711 560.29851913 C212.63424784 564.80200943 207.93387423 568.77155642 203.0352211 572.68914413 C201.16849265 574.19922121 199.32756182 575.74199846 197.5195961 577.32195663 C183.55358409 589.47755968 167.56187048 599.49797497 151.1524086 608.02117538 C150.36334122 608.43931503 149.57427383 608.85745468 148.76129532 609.28826523 C99.53420841 635.12235391 45.37061539 640.73270213 -9.36783528 640.42675114 C-14.71681372 640.40128187 -20.06580716 640.39936044 -25.41483688 640.39464951 C-35.48612476 640.38235057 -45.55723332 640.34971151 -55.62844318 640.30925155 C-67.1186862 640.26411961 -78.60893903 640.24244403 -90.09924901 640.22246981 C-113.68212818 640.18096288 -137.26484962 640.11087333 -160.8475914 640.02117538 C-161.02186517 594.23004345 -161.1845646 548.43887385 -161.33854705 502.64766932 C-161.34755829 499.96852012 -161.35658759 497.28937099 -161.36561728 494.61022186 C-161.68079093 400.98511151 -161.9021944 307.36051195 -161.91074991 143.18829757 C-161.91008902 140.51151852 -161.90944644 137.83473947 -161.90880585 135.15796041 C-161.89798432 90.44569318 -161.87826647 45.73343353 -161.8475914 1.02117538 C-141.9723308 0.88910324 -122.09706011 0.75865904 -102.22177696 0.63002396 C-92.98815671 0.57022712 -83.75454023 0.50993518 -74.52093124 0.44842148 C-51.65383997 0.29630948 -28.78672479 0.15299615 -5.91944456 0.03220701 C-3.94629514 0.02170093 -1.97314751 0.0108593 0 0 Z M-114.8475914 46.02117538 C-114.8475914 226.86117538 -114.8475914 407.70117538 -114.8475914 594.02117538 C-23.26309921 598.21526397 -23.26309921 598.21526397 73.5899086 588.83367538 C74.52560684 588.6228331 75.46130508 588.41199081 76.42535782 588.19475937 C104.446838 581.61257943 131.73222371 569.87008513 155.1524086 553.02117538 C156.21846329 552.2644957 157.28451797 551.50781601 158.38287735 550.72820663 C176.08719025 537.78779682 192.9853381 522.62346964 206.1524086 505.02117538 C206.63097305 504.38663437 207.10953751 503.75209335 207.60260391 503.09832382 C215.82120225 492.15197926 223.32478128 480.88500968 230.1524086 469.02117538 C230.5438002 468.34296738 230.9351918 467.66475937 231.33844376 466.9659996 C253.74891323 427.63548245 267.11222216 379.75861772 267.3555336 334.43914413 C267.36254791 333.55509903 267.36956223 332.67105392 267.37678909 331.76021957 C267.39423086 328.90965251 267.40064529 326.05929392 267.4024086 323.20867538 C267.40308334 322.23030716 267.40375809 321.25193893 267.40445328 320.24392319 C267.31855429 241.59978973 238.61603412 167.97377582 183.2149086 111.77117538 C176.3023341 104.88417246 169.01491292 98.78417371 161.1524086 93.02117538 C160.29848526 92.38405624 160.29848526 92.38405624 159.42731094 91.73406601 C77.57405605 30.71912213 -13.57441077 46.02117538 -114.8475914 46.02117538 Z " fill="#FDFDFD" transform="translate(319.8475914001465,191.97882461547852)"/>
<path d="M0 0 C13.14504433 7.95551781 24.4496056 16.87874258 35 28 C33.30530887 32.02981787 30.51944026 35.11782213 27.75 38.4375 C16.29588629 52.48579383 6.30077605 67.88589167 -2 84 C-2.64316162 85.24740967 -2.64316162 85.24740967 -3.29931641 86.52001953 C-16.2417161 111.93193238 -25.20074046 138.56078932 -30.25 166.625 C-30.40122314 167.45725098 -30.55244629 168.28950195 -30.70825195 169.14697266 C-33.50058505 185.80636935 -34.3327967 202.53506933 -34.26074219 219.40136719 C-34.25002982 222.36674547 -34.26071483 225.3315149 -34.2734375 228.296875 C-34.2880715 246.49360169 -33.270032 264.67828225 -29.75 282.5625 C-29.42684814 284.24581421 -29.42684814 284.24581421 -29.09716797 285.96313477 C-20.26760287 330.56853242 -1.66483455 371.00596794 26 407 C27.69319089 409.24574736 29.37786273 411.49783248 31.0625 413.75 C31.81660156 414.75546875 32.57070313 415.7609375 33.34765625 416.796875 C33.89292969 417.52390625 34.43820312 418.2509375 35 419 C26.0830972 429.74601107 16.73474247 437.55674009 5 445 C4.01 445.66 3.02 446.32 2 447 C0.125 447 0.125 447 -2 446 C-3.81862988 444.03779407 -5.40440685 442.13150213 -7 440 C-7.47783936 439.37335449 -7.95567871 438.74670898 -8.44799805 438.10107422 C-9.97928888 436.07744935 -11.49090084 434.04021298 -13 432 C-13.48033691 431.3596582 -13.96067383 430.71931641 -14.45556641 430.05957031 C-33.88514956 404.04357604 -49.13198092 374.55416276 -60 344 C-60.34514648 343.03046387 -60.69029297 342.06092773 -61.04589844 341.06201172 C-72.69320156 307.77697223 -79.96363262 271.8996925 -80.23828125 236.578125 C-80.24802979 235.52713623 -80.25777832 234.47614746 -80.26782227 233.39331055 C-80.44061811 209.93627454 -80.1603196 187.13965691 -76 164 C-75.81276367 162.93088379 -75.62552734 161.86176758 -75.43261719 160.76025391 C-64.83130762 101.75728315 -38.68592123 45.82147994 0 0 Z " fill="#FEFEFE" transform="translate(458,289)"/>
<path d="M0 0 C5.91916191 4.22427403 11.24811056 8.85270135 16.5 13.875 C17.56154297 14.87853516 17.56154297 14.87853516 18.64453125 15.90234375 C23.51188463 20.52054559 28.27722791 25.23432251 33 30 C24.44253455 40.58423358 13.75738847 48.78422385 3 57 C2.4215332 57.44601562 1.84306641 57.89203125 1.24707031 58.3515625 C-33.36313583 84.93593196 -73.0008895 102.94111342 -115.8125 111.3125 C-117.05080566 111.55516602 -118.28911133 111.79783203 -119.56494141 112.04785156 C-136.9144877 115.28131122 -153.87140302 116.3802772 -171.5 116.3125 C-172.51090698 116.31034485 -173.52181396 116.3081897 -174.56335449 116.30596924 C-220.85507992 116.14788032 -262.33092745 104.78051724 -303.4375 83.75 C-304.41533447 83.25467773 -305.39316895 82.75935547 -306.40063477 82.24902344 C-311.36726582 79.65743457 -315.33532817 77.26377954 -319 73 C-318.14019531 72.27296875 -317.28039062 71.5459375 -316.39453125 70.796875 C-310.18981369 65.52795091 -304.04516052 60.2082607 -298.0625 54.6875 C-297.52149658 54.19000244 -296.98049316 53.69250488 -296.4230957 53.17993164 C-292.94397289 49.95313015 -289.65210514 46.61345953 -286.5625 43.01171875 C-285 42 -285 42 -282.77734375 42.1015625 C-279.17388655 43.26723783 -275.90540885 44.93491485 -272.5625 46.6875 C-255.98959244 55.14229306 -239.05259171 61.52409669 -220.9375 65.75 C-220.10089844 65.94859619 -219.26429688 66.14719238 -218.40234375 66.35180664 C-203.68837867 69.6251592 -188.9572975 70.381487 -173.9375 70.3125 C-173.08660797 70.31034485 -172.23571594 70.3081897 -171.35903931 70.30596924 C-109.72265141 70.0565897 -55.34150826 47.29944015 -8.97265625 7.54296875 C-6.00257874 5.00220599 -3.00734268 2.49640816 0 0 Z " fill="#FDFDFD" transform="translate(836,716)"/>
<path d="M0 0 C0.77233978 0.00126892 1.54467957 0.00253784 2.34042358 0.00384521 C56.69178142 0.17354201 111.67474286 16.11521203 156 48.1875 C156.74975098 48.71988281 157.49950195 49.25226563 158.27197266 49.80078125 C168.46549712 57.0447858 177.95752566 64.55348634 187 73.1875 C188.42964416 74.4464773 189.86633393 75.69753631 191.3125 76.9375 C195.05631984 80.17900439 198.54836961 83.6387925 202 87.1875 C200.45427224 91.00378832 198.11228755 93.15775743 195.0625 95.875 C194.07894531 96.7515625 193.09539062 97.628125 192.08203125 98.53125 C188.30958075 101.81350854 184.41548196 104.94228192 180.51171875 108.06640625 C177.59639392 110.52833686 175.03556746 113.19260138 172.53515625 116.0703125 C171 117.1875 171 117.1875 169 117.0546875 C166.71585434 116.06429622 165.60400499 115.02875359 163.9375 113.1875 C159.3302955 108.38466049 154.20839831 104.3175971 149 100.1875 C148.01 99.39214844 147.02 98.59679687 146 97.77734375 C109.38480004 68.89710478 67.18335672 52.47039413 21 47.1875 C19.94167969 47.05472656 18.88335938 46.92195313 17.79296875 46.78515625 C-25.45609079 42.16263598 -69.43332461 51.52067938 -106.96044922 73.2644043 C-107.69666504 73.67601807 -108.43288086 74.08763184 -109.19140625 74.51171875 C-109.83279541 74.88385498 -110.47418457 75.25599121 -111.13500977 75.6394043 C-113 76.1875 -113 76.1875 -115.13549805 75.38476562 C-117.13969407 74.09779727 -118.61709158 72.73199267 -120.25 71 C-123.31000844 67.8490359 -126.49884603 64.94504828 -129.82421875 62.078125 C-132.28729153 59.93786068 -134.70629788 57.75274899 -137.125 55.5625 C-140.6845614 52.34900707 -144.28439311 49.21865299 -148 46.1875 C-133.42601536 34.0425128 -116.5328274 25.23309145 -99 18.1875 C-98.3095459 17.90310059 -97.6190918 17.61870117 -96.90771484 17.32568359 C-75.59454903 8.62098902 -52.89546758 3.37625716 -30 1.1875 C-28.55536377 1.0471936 -28.55536377 1.0471936 -27.08154297 0.90405273 C-18.05500163 0.11508794 -9.05332756 -0.01537627 0 0 Z " fill="#FDFDFD" transform="translate(666,190.8125)"/>
<path d="M0 0 C2.83638758 0.16684633 5.42687449 0.53794106 8.1875 1.1875 C8.5175 2.1775 8.8475 3.1675 9.1875 4.1875 C-0.22252278 3.22394647 -0.22252278 3.22394647 -4.8125 2.1875 C-2.8125 0.1875 -2.8125 0.1875 0 0 Z " fill="#171717" transform="translate(720.8125,193.8125)"/>
<path d="M0 0 C0.66 0.33 1.32 0.66 2 1 C2.16242661 8.14677104 2.16242661 8.14677104 1 11 C0.01 11.33 -0.98 11.66 -2 12 C-1.34 8.04 -0.68 4.08 0 0 Z " fill="#151515" transform="translate(624,586)"/>
<path d="M0 0 C3.48670834 1.1094072 6.77484237 2.26337666 10 4 C10 4.66 10 5.32 10 6 C6.51329166 4.8905928 3.22515763 3.73662334 0 2 C0 1.34 0 0.68 0 0 Z " fill="#191919" transform="translate(437,259)"/>
<path d="M0 0 C0.99 0.33 1.98 0.66 3 1 C0.36 2.98 -2.28 4.96 -5 7 C-5.66 6.67 -6.32 6.34 -7 6 C-5.90716423 4.96704564 -4.80029421 3.94892165 -3.6875 2.9375 C-3.07261719 2.36902344 -2.45773437 1.80054688 -1.82421875 1.21484375 C-0.92123047 0.61349609 -0.92123047 0.61349609 0 0 Z " fill="#060606" transform="translate(514,771)"/>
<path d="M0 0 C2.64 0.66 5.28 1.32 8 2 C8 2.66 8 3.32 8 4 C4.28400809 4.20086443 3.22791555 4.1519437 0 2 C0 1.34 0 0.68 0 0 Z " fill="#151515" transform="translate(735,247)"/>
</svg>
